<svg xmlns="http://www.w3.org/2000/svg" viewBox="0 0 432.63 500.25"><defs><style>.cls-1{fill:#00126c;}</style></defs><g id="Layer_2" data-name="Layer 2"><g id="Layer_1-2" data-name="Layer 1"><path class="cls-1" d="M215.31,3,428.86,127.43l1,247.16L217.32,497.25,3.77,372.86l-1-247.16L215.31,3m0-3a1.66,1.66,0,0,0-.84.23L.83,123.61A1.66,1.66,0,0,0,0,125.07L1,373.51A1.68,1.68,0,0,0,1.83,375L216.47,500a1.69,1.69,0,0,0,.85.23,1.67,1.67,0,0,0,.84-.22L431.8,376.68a1.66,1.66,0,0,0,.83-1.46l-1-248.43a1.68,1.68,0,0,0-.83-1.44L216.16.25a1.69,1.69,0,0,0-.85-.23Z"/><rect class="cls-1" x="283.99" y="210.69" width="2.78" height="244.65"/><rect class="cls-1" x="283.99" y="44.05" width="2.78" height="83.68"/><rect class="cls-1" x="213.49" y="249.7" width="2.78" height="247.98"/><rect class="cls-1" x="213.49" y="2.08" width="2.78" height="83.1"/><rect class="cls-1" x="356.32" y="88.32" width="2.78" height="325.89"/><rect class="cls-1" x="-29.36" y="249.27" width="491.51" height="2.79" transform="translate(-96.32 141.73) rotate(-29.99)"/><rect class="cls-1" x="-14.42" y="143.84" width="250.18" height="2.78" transform="translate(-57.79 74.79) rotate(-30)"/><rect class="cls-1" x="208.31" y="64.03" width="81.21" height="2.78" transform="translate(0.64 133.22) rotate(-30)"/><rect class="cls-1" x="-24.85" y="186.98" width="409.92" height="2.79" transform="translate(-70.04 115.25) rotate(-29.99)"/><rect class="cls-1" x="393.06" y="309.75" width="2.79" height="85.53" transform="translate(-108.06 517.87) rotate(-60)"/><polygon class="cls-1" points="215.32 251.25 1.07 127.02 2.47 124.59 216.72 248.82 215.32 251.25"/><rect class="cls-1" x="144.19" y="209.64" width="2.79" height="329.98" transform="translate(-251.47 312.28) rotate(-59.84)"/><rect class="cls-1" x="321.44" y="350.93" width="2.79" height="86.84" transform="translate(-180.1 476.76) rotate(-60)"/><rect class="cls-1" x="106.81" y="148.27" width="2.79" height="244.36" transform="translate(-180.11 228.94) rotate(-60)"/></g></g></svg>